<?xml version="1.0" encoding="UTF-8" standalone="no"?>
<svg
   xmlns:dc="http://purl.org/dc/elements/1.1/"
   xmlns:cc="http://creativecommons.org/ns#"
   xmlns:rdf="http://www.w3.org/1999/02/22-rdf-syntax-ns#"
   xmlns:svg="http://www.w3.org/2000/svg"
   xmlns="http://www.w3.org/2000/svg"
   xmlns:xlink="http://www.w3.org/1999/xlink"
   xmlns:sodipodi="http://sodipodi.sourceforge.net/DTD/sodipodi-0.dtd"
   xmlns:inkscape="http://www.inkscape.org/namespaces/inkscape"
   width="169mm"
   height="169mm"
   viewBox="0 0 169 169"
   version="1.1"
   id="svg8"
   sodipodi:docname="logo.svg"
   inkscape:version="1.0.2-2 (e86c870879, 2021-01-15)">
  <sodipodi:namedview
     pagecolor="#ffffff"
     bordercolor="#666666"
     borderopacity="1"
     objecttolerance="10"
     gridtolerance="10"
     guidetolerance="10"
     inkscape:pageopacity="0"
     inkscape:pageshadow="2"
     inkscape:window-width="1366"
     inkscape:window-height="705"
     id="namedview77"
     showgrid="false"
     inkscape:zoom="0.59558405"
     inkscape:cx="91.801843"
     inkscape:cy="347.9523"
     inkscape:window-x="-8"
     inkscape:window-y="-8"
     inkscape:window-maximized="1"
     inkscape:current-layer="layer1" />
  <defs
     id="defs2">
    <linearGradient
       id="linearGradient1808">
      <stop
         style="stop-color:#0b3b73;stop-opacity:1;"
         offset="0"
         id="stop1804" />
      <stop
         style="stop-color:#0b3b73;stop-opacity:0;"
         offset="1"
         id="stop1806" />
    </linearGradient>
    <linearGradient
       id="linearGradient1800">
      <stop
         style="stop-color:#63b436;stop-opacity:1;"
         offset="0"
         id="stop1796" />
      <stop
         style="stop-color:#63b436;stop-opacity:0;"
         offset="1"
         id="stop1798" />
    </linearGradient>
    <linearGradient
       id="linearGradient1792">
      <stop
         style="stop-color:#82271d;stop-opacity:1;"
         offset="0"
         id="stop1788" />
      <stop
         style="stop-color:#82271d;stop-opacity:0;"
         offset="1"
         id="stop1790" />
    </linearGradient>
    <linearGradient
       id="linearGradient1685">
      <stop
         style="stop-color:#7d1e62;stop-opacity:1;"
         offset="0"
         id="stop1681" />
      <stop
         style="stop-color:#7d1e62;stop-opacity:0;"
         offset="1"
         id="stop1683" />
    </linearGradient>
    <linearGradient
       id="linearGradient1462">
      <stop
         style="stop-color:#0b326b;stop-opacity:1;"
         offset="0"
         id="stop1458" />
      <stop
         style="stop-color:#0b326b;stop-opacity:0;"
         offset="1"
         id="stop1460" />
    </linearGradient>
    <linearGradient
       id="linearGradient1434">
      <stop
         style="stop-color:#5db436;stop-opacity:1;"
         offset="0"
         id="stop1430" />
      <stop
         style="stop-color:#5db436;stop-opacity:0;"
         offset="1"
         id="stop1432" />
    </linearGradient>
    <linearGradient
       id="linearGradient1406">
      <stop
         style="stop-color:#7d261d;stop-opacity:1;"
         offset="0"
         id="stop1402" />
      <stop
         style="stop-color:#7d261d;stop-opacity:0;"
         offset="1"
         id="stop1404" />
    </linearGradient>
    <linearGradient
       id="linearGradient1378">
      <stop
         style="stop-color:#7c1e62;stop-opacity:1;"
         offset="0"
         id="stop1374" />
      <stop
         style="stop-color:#7c1e62;stop-opacity:0;"
         offset="1"
         id="stop1376" />
    </linearGradient>
    <linearGradient
       id="linearGradient1147">
      <stop
         style="stop-color:#f39528;stop-opacity:1;"
         offset="0"
         id="stop1143" />
      <stop
         style="stop-color:#f39528;stop-opacity:0;"
         offset="1"
         id="stop1145" />
    </linearGradient>
    <linearGradient
       id="linearGradient294">
      <stop
         style="stop-color:#f28c2c;stop-opacity:1;"
         offset="0"
         id="stop290" />
      <stop
         style="stop-color:#f28c2c;stop-opacity:0;"
         offset="1"
         id="stop292" />
    </linearGradient>
    <radialGradient
       xlink:href="#linearGradient294"
       id="radialGradient296"
       cx="111.67737"
       cy="97.317329"
       fx="111.67737"
       fy="97.317329"
       r="14"
       gradientUnits="userSpaceOnUse"
       gradientTransform="matrix(0.18352223,-2.2267754,4.3273012,0.35665274,-343.30458,244.55201)" />
    <radialGradient
       xlink:href="#linearGradient1147"
       id="radialGradient1149"
       cx="162.76241"
       cy="139.68607"
       fx="162.76241"
       fy="139.68607"
       r="45.091946"
       gradientTransform="matrix(0.10669627,-0.88766803,1.9878385,0.23894775,-149.64884,165.21558)"
       gradientUnits="userSpaceOnUse" />
    <linearGradient
       xlink:href="#linearGradient1378"
       id="linearGradient1380"
       x1="49.624363"
       y1="165.97627"
       x2="57.462948"
       y2="121.34036"
       gradientUnits="userSpaceOnUse"
       gradientTransform="translate(-20.750412,-64.102976)" />
    <linearGradient
       xlink:href="#linearGradient1406"
       id="linearGradient1408"
       x1="100.2932"
       y1="209.27611"
       x2="60.670181"
       y2="184.14871"
       gradientUnits="userSpaceOnUse"
       gradientTransform="translate(-20.750412,-64.102976)" />
    <linearGradient
       xlink:href="#linearGradient1434"
       id="linearGradient1436"
       x1="156.00797"
       y1="175.9164"
       x2="130.16026"
       y2="202.85757"
       gradientUnits="userSpaceOnUse"
       gradientTransform="translate(-20.750412,-64.102976)" />
    <linearGradient
       xlink:href="#linearGradient1462"
       id="linearGradient1464"
       x1="142.39903"
       y1="112.31521"
       x2="160.62898"
       y2="155.2836"
       gradientUnits="userSpaceOnUse"
       gradientTransform="translate(-20.750412,-64.102976)" />
    <linearGradient
       xlink:href="#linearGradient1685"
       id="linearGradient1687"
       x1="39.021351"
       y1="140.3165"
       x2="30.201456"
       y2="122.94398"
       gradientUnits="userSpaceOnUse"
       gradientTransform="translate(-20.750412,-64.102976)" />
    <linearGradient
       xlink:href="#linearGradient1792"
       id="linearGradient1794"
       x1="70.024612"
       y1="223.43733"
       x2="58.264755"
       y2="208.20296"
       gradientUnits="userSpaceOnUse"
       gradientTransform="translate(-20.750412,-64.102976)" />
    <linearGradient
       xlink:href="#linearGradient1800"
       id="linearGradient1802"
       x1="159.02538"
       y1="207.9357"
       x2="142.18739"
       y2="217.82466"
       gradientUnits="userSpaceOnUse"
       gradientTransform="translate(-20.750412,-64.102976)" />
    <linearGradient
       xlink:href="#linearGradient1808"
       id="linearGradient1810"
       x1="172.65611"
       y1="120.80582"
       x2="178.00151"
       y2="142.18739"
       gradientUnits="userSpaceOnUse"
       gradientTransform="translate(-20.750412,-64.102976)" />
  </defs>
  <metadata
     id="metadata5">
    <rdf:RDF>
      <cc:Work
         rdf:about="">
        <dc:format>image/svg+xml</dc:format>
        <dc:type
           rdf:resource="http://purl.org/dc/dcmitype/StillImage" />
        <dc:title />
      </cc:Work>
    </rdf:RDF>
  </metadata>
  <g
     id="layer1">
    <circle
       style="fill:#fc8721;fill-opacity:0;stroke-width:0.264583"
       id="path40"
       cx="84.326965"
       cy="17.350897"
       ry="14.363094"
       rx="14.646577" />
    <g
       id="g122"
       transform="translate(-0.18741388,1.3207815)">
      <circle
         style="fill:#facf0c;fill-opacity:1;stroke-width:0.264583"
         id="path268"
         cx="84.119469"
         cy="16.645832"
         r="14" />
      <path
         style="fill:#f8c312;fill-opacity:1;stroke:#000000;stroke-width:0.264583px;stroke-linecap:butt;stroke-linejoin:miter;stroke-opacity:0.0200803"
         d="m 55.506285,50.140324 0.249205,-6.80095 c 0,0 0.530371,-5.27066 2.254885,-7.75113 1.724517,-2.480468 5.527903,-6.283854 8.079243,-7.913877 2.551337,-1.630022 2.929316,-1.819011 2.929316,-1.819011 0,0 3.803385,4.582962 7.276041,6.260232 3.472653,1.677268 7.299663,2.763949 10.158113,2.315104 2.85844,-0.448847 6.5865,-2.049369 9.45965,-4.722066 2.873146,-2.672694 4.309712,-5.879928 4.309712,-5.879928 0,0 8.55263,-0.334087 17.37253,2.939965 8.81989,3.27405 18.14092,10.022611 21.94951,15.234361 3.80859,5.21176 5.84652,9.08717 5.84652,9.08717 l -2.57247,2.63928 h -0.93545 c 0,0 -7.81763,-6.51469 -11.5594,-7.34991 -3.74177,-0.83522 -8.21854,-1.50339 -13.29666,-0.0334 -5.07812,1.46998 -5.17835,1.16931 -5.31198,1.83748 -0.13364,0.66817 -0.24467,0.72827 -0.24467,0.72827 z"
         id="path298" />
      <path
         style="fill:#cd3b90;fill-opacity:1;stroke:#000000;stroke-width:0.264583px;stroke-linecap:butt;stroke-linejoin:miter;stroke-opacity:0.0200803"
         d="m 42.766568,106.53933 -13.892135,-4.66588 c 0,0 -4.795762,-2.249896 -6.563167,-4.700046 -1.767385,-2.4501 -4.092614,-7.30027 -4.783316,-10.24807 -0.690695,-2.94778 -0.743504,-3.36702 -0.743504,-3.36702 0,0 5.585606,-2.06648 8.3205,-4.78542 2.734881,-2.71906 5.030286,-5.96827 5.555716,-8.81373 0.525444,-2.84537 0.253173,-6.89334 -1.314267,-10.49072 -1.567432,-3.59747 -4.115959,-6.01716 -4.115959,-6.01716 0,0 2.523815,-8.17856 8.539907,-15.41162 6.01612,-7.232967 15.476074,-13.785381 21.656547,-15.648029 6.18048,-1.862646 10.512625,-2.498614 10.512625,-2.498614 l 1.635781,3.302675 -0.310516,0.882407 c 0,0 -8.740314,5.211861 -10.770215,8.464218 -2.029908,3.252436 -4.146232,7.253513 -4.445223,12.531663 -0.298986,5.27821 -0.615892,5.27289 -0.02997,5.62073 0.585916,0.34793 3.582317,4.77202 3.582317,4.77202 z"
         id="path298-8" />
      <path
         style="fill:#d22f1d;fill-opacity:1;stroke:#000000;stroke-width:0.264583px;stroke-linecap:butt;stroke-linejoin:miter;stroke-opacity:0.0200803"
         d="m 88.030118,133.2265 -8.48702,11.94712 c 0,0 -3.541633,3.93932 -6.398484,4.92193 -2.856674,0.98288 -8.172307,1.80461 -11.193845,1.61249 -3.021524,-0.19203 -3.438109,-0.26282 -3.438109,-0.26282 0,0 -0.361444,-5.94468 -2.172426,-9.34948 -1.811106,-3.40473 -4.256877,-6.54235 -6.828486,-7.86885 -2.571506,-1.32646 -6.525014,-2.23749 -10.422097,-1.77831 -3.897169,0.45911 -6.950932,2.19816 -6.950932,2.19816 0,0 -7.098008,-4.78286 -12.28029,-12.63498 -5.182115,-7.85204 -8.716115,-18.80354 -8.710226,-25.258596 0.0059,-6.45516 0.650981,-10.78581 0.650981,-10.78581 l 3.634716,-0.61016 0.754825,0.55263 c 0,0 2.45898,9.87468 4.984668,12.75908 2.52569,2.884316 5.743059,6.068096 10.708735,7.881986 4.965758,1.81381 4.868942,2.11559 5.371469,1.65548 0.502606,-0.46011 5.604614,-2.04778 5.604614,-2.04778 z"
         id="path298-8-4" />
      <path
         style="fill:#b7d236;fill-opacity:1;stroke:#000000;stroke-width:0.264583px;stroke-linecap:butt;stroke-linejoin:miter;stroke-opacity:0.0200803"
         d="m 126.5104,100.05611 8.74756,11.75771 c 0,0 2.65514,4.58385 2.7089,7.60449 0.054,3.02058 -0.80358,8.33052 -1.91812,11.14553 -1.11447,2.81505 -1.31028,3.18951 -1.31028,3.18951 0,0 -5.76641,-1.48945 -9.56375,-0.81669 -3.79732,0.67286 -7.53623,2.03186 -9.59115,4.06907 -2.05481,2.03709 -4.14065,5.51696 -4.90563,9.36572 -0.76511,3.84883 -0.0528,7.29003 -0.0528,7.29003 0,0 -6.73868,5.27712 -15.806192,7.78536 -9.06743,2.50805 -20.574999,2.49258 -26.713617,0.49639 -6.138696,-1.9964 -10.059374,-3.94546 -10.059374,-3.94546 l 0.540465,-3.64572 0.758469,-0.54759 c 0,0 10.151718,0.70604 13.674416,-0.80703 3.522602,-1.51313 7.543361,-3.59187 10.800201,-7.75615 3.25677,-4.16441 3.51397,-3.97927 3.23126,-4.59916 -0.28271,-0.61997 -0.21962,-5.96296 -0.21962,-5.96296 z"
         id="path298-8-4-9" />
      <path
         style="fill:#0fa0cb;fill-opacity:1;stroke:#000000;stroke-width:0.264583px;stroke-linecap:butt;stroke-linejoin:miter;stroke-opacity:0.0200803"
         d="m 107.68916,52.672834 13.95947,-4.4606 c 0,0 5.19733,-1.02418 8.07198,-0.0957 2.87477,0.92871 7.61941,3.46236 9.92068,5.42982 2.30127,1.96734 2.59199,2.27405 2.59199,2.27405 0,0 -3.27937,4.97142 -3.87477,8.78163 -0.59526,3.81026 -0.52261,7.78787 0.73828,10.39244 1.26047,2.60448 3.87551,5.70632 7.26802,7.67838 3.39253,1.97224 6.87874,2.41472 6.87874,2.41472 0,0 2.8059,8.08608 2.23725,17.476896 -0.56883,9.39067 -4.31632,20.271 -8.19581,25.43019 -3.87964,5.15912 -6.99517,8.2356 -6.99517,8.2356 l -3.27327,-1.69382 -0.27196,-0.89508 c 0,0 3.96089,-9.37382 3.67226,-13.19681 -0.2885,-3.82297 -0.95036,-8.30068 -3.83339,-12.73212 -2.88278,-4.43154 -2.62428,-4.61475 -3.30237,-4.54843 -0.67797,0.068 -5.71173,-1.7265 -5.71173,-1.7265 z"
         id="path298-8-4-9-4" />
      <circle
         style="fill:#cd3b90;fill-opacity:1;stroke-width:0.264583"
         id="path268-7"
         cx="14.529166"
         cy="65.800789"
         r="14" />
      <circle
         style="fill:#d22f1d;fill-opacity:1;stroke-width:0.264583"
         id="path268-0"
         cx="41.256119"
         cy="149.44534"
         r="14" />
      <circle
         style="fill:#b7d236;fill-opacity:1;stroke-width:0.264583"
         id="path268-1"
         cx="127.31691"
         cy="149.7126"
         r="14" />
      <circle
         style="fill:#0fa0cb;fill-opacity:1;stroke-width:0.264583"
         id="path268-00"
         cx="154.84566"
         cy="67.660896"
         r="14" />
    </g>
    <g
       id="g99"
       transform="translate(-0.18757792,1.3204954)">
      <circle
         style="fill:url(#linearGradient1687);fill-opacity:1;stroke-width:0.264583"
         id="path268-7-4"
         cx="14.529586"
         cy="65.801033"
         r="14" />
      <g
         id="g110">
        <path
           style="fill:url(#radialGradient1149);fill-opacity:1;stroke:#000000;stroke-width:0.264583px;stroke-linecap:butt;stroke-linejoin:miter;stroke-opacity:0.0200803"
           d="m 55.505927,50.140584 0.249205,-6.80095 c 0,0 0.530371,-5.27066 2.254885,-7.751132 1.724517,-2.480468 5.527903,-6.283854 8.079243,-7.913877 2.551337,-1.630022 2.929316,-1.819011 2.929316,-1.819011 0,0 3.803385,4.582962 7.276041,6.260232 3.472651,1.677268 7.299661,2.763949 10.158111,2.315104 2.85844,-0.448847 6.5865,-2.049369 9.45965,-4.722066 2.873146,-2.672694 4.309712,-5.879928 4.309712,-5.879928 0,0 8.55263,-0.334087 17.37253,2.939965 8.81989,3.27405 18.14092,10.022613 21.94951,15.234363 3.80859,5.21176 5.84652,9.08717 5.84652,9.08717 l -2.57247,2.63928 h -0.93545 c 0,0 -7.81763,-6.51469 -11.5594,-7.34991 -3.74177,-0.83522 -8.21854,-1.50339 -13.29666,-0.0334 -5.07812,1.46998 -5.17835,1.16931 -5.31198,1.83748 -0.13364,0.66817 -0.24467,0.72827 -0.24467,0.72827 z"
           id="path298-4" />
        <circle
           style="fill:url(#radialGradient296);fill-opacity:1;stroke-width:0.264583"
           id="path268-8"
           cx="84.119591"
           cy="16.646023"
           r="14" />
        <path
           style="fill:url(#linearGradient1380);fill-opacity:1;stroke:#000000;stroke-width:0.264583px;stroke-linecap:butt;stroke-linejoin:miter;stroke-opacity:0.0200803"
           d="M 42.76608,106.53918 28.873951,101.8733 c 0,0 -4.795762,-2.249896 -6.563167,-4.700046 -1.767385,-2.4501 -4.092614,-7.30027 -4.783316,-10.24807 -0.690695,-2.94778 -0.743504,-3.36702 -0.743504,-3.36702 0,0 5.585606,-2.06648 8.3205,-4.78542 2.734881,-2.71906 5.030286,-5.96827 5.555716,-8.81373 0.525444,-2.84537 0.253173,-6.89334 -1.314267,-10.49072 -1.567432,-3.59747 -4.115959,-6.01716 -4.115959,-6.01716 0,0 2.523815,-8.17856 8.539906,-15.41162 6.01612,-7.23297 15.47607,-13.78538 21.65655,-15.64803 6.18048,-1.86264 10.51262,-2.49861 10.51262,-2.49861 l 1.63578,3.30267 -0.31051,0.88241 c 0,0 -8.74032,5.21186 -10.77022,8.46422 -2.02991,3.25243 -4.14623,7.25351 -4.44522,12.53166 -0.29899,5.27821 -0.61589,5.27289 -0.03,5.62073 0.58591,0.34793 3.58232,4.77202 3.58232,4.77202 z"
           id="path298-8-6" />
        <path
           style="fill:url(#linearGradient1408);fill-opacity:1;stroke:#000000;stroke-width:0.264583px;stroke-linecap:butt;stroke-linejoin:miter;stroke-opacity:0.0200803"
           d="m 88.029808,133.22603 -8.48702,11.94712 c 0,0 -3.541631,3.93932 -6.398481,4.92193 -2.85668,0.98288 -8.17231,1.80461 -11.19385,1.61249 -3.02152,-0.19203 -3.43811,-0.26282 -3.43811,-0.26282 0,0 -0.36144,-5.94468 -2.17243,-9.34948 -1.8111,-3.40473 -4.25687,-6.54235 -6.82848,-7.86885 -2.57151,-1.32646 -6.52502,-2.23749 -10.4221,-1.77831 -3.89717,0.45911 -6.95093,2.19816 -6.95093,2.19816 0,0 -7.09801,-4.78286 -12.28029,-12.63498 -5.18211,-7.85204 -8.71612,-18.80354 -8.71023,-25.258596 0.006,-6.45516 0.65099,-10.78581 0.65099,-10.78581 l 3.63471,-0.61016 0.75483,0.55263 c 0,0 2.45898,9.87468 4.98466,12.75908 2.52569,2.884316 5.74306,6.068096 10.70874,7.881986 4.96576,1.81381 4.86894,2.11559 5.37147,1.65548 0.5026,-0.46011 5.60461,-2.04778 5.60461,-2.04778 z"
           id="path298-8-4-1" />
        <path
           style="fill:url(#linearGradient1436);fill-opacity:1;stroke:#000000;stroke-width:0.264583px;stroke-linecap:butt;stroke-linejoin:miter;stroke-opacity:0.0200803"
           d="m 126.51,100.05572 8.74756,11.75771 c 0,0 2.65514,4.58385 2.7089,7.60449 0.054,3.02058 -0.80358,8.33052 -1.91812,11.14553 -1.11447,2.81505 -1.31028,3.18951 -1.31028,3.18951 0,0 -5.76641,-1.48945 -9.56375,-0.81669 -3.79732,0.67286 -7.53623,2.03186 -9.59115,4.06907 -2.05481,2.03709 -4.14065,5.51696 -4.90563,9.36572 -0.76511,3.84883 -0.0528,7.29003 -0.0528,7.29003 0,0 -6.73868,5.27712 -15.806192,7.78536 -9.06743,2.50805 -20.575002,2.49258 -26.71362,0.49639 -6.138696,-1.9964 -10.059374,-3.94546 -10.059374,-3.94546 l 0.540465,-3.64572 0.758469,-0.54759 c 0,0 10.151718,0.70604 13.674416,-0.80703 3.522602,-1.51313 7.543364,-3.59187 10.800204,-7.75615 3.25677,-4.16441 3.51397,-3.97927 3.23126,-4.59916 -0.28271,-0.61997 -0.21962,-5.96296 -0.21962,-5.96296 z"
           id="path298-8-4-9-9" />
        <path
           style="fill:url(#linearGradient1464);fill-opacity:1;stroke:#000000;stroke-width:0.264583px;stroke-linecap:butt;stroke-linejoin:miter;stroke-opacity:0.0200803"
           d="m 107.68908,52.672834 13.95947,-4.4606 c 0,0 5.19733,-1.02418 8.07198,-0.0957 2.87477,0.92871 7.61941,3.46236 9.92068,5.42982 2.30127,1.96734 2.59199,2.27405 2.59199,2.27405 0,0 -3.27937,4.97142 -3.87477,8.78163 -0.59526,3.81025 -0.52261,7.78786 0.73828,10.39243 1.26047,2.60448 3.87551,5.70632 7.26802,7.67838 3.39253,1.97224 6.87874,2.41472 6.87874,2.41472 0,0 2.8059,8.08608 2.23725,17.476896 -0.56883,9.39067 -4.31632,20.271 -8.19581,25.43019 -3.87964,5.15912 -6.99517,8.2356 -6.99517,8.2356 l -3.27327,-1.69382 -0.27196,-0.89508 c 0,0 3.96089,-9.37382 3.67226,-13.19681 -0.2885,-3.82297 -0.95036,-8.30068 -3.83339,-12.73212 -2.88278,-4.43154 -2.62428,-4.61475 -3.30237,-4.54843 -0.67797,0.068 -5.71173,-1.7265 -5.71173,-1.7265 z"
           id="path298-8-4-9-4-0" />
        <circle
           style="fill:url(#linearGradient1794);fill-opacity:1;stroke-width:0.264583"
           id="path268-0-5"
           cx="41.256592"
           cy="149.44499"
           r="14" />
        <circle
           style="fill:url(#linearGradient1802);fill-opacity:1;stroke-width:0.264583"
           id="path268-1-0"
           cx="127.31659"
           cy="149.71298"
           r="14" />
        <circle
           style="fill:url(#linearGradient1810);fill-opacity:1;stroke-width:0.264583"
           id="path268-00-1"
           cx="154.84557"
           cy="67.661034"
           r="14" />
      </g>
    </g>
    <circle
       style="fill:#ff0000;fill-opacity:1;stroke:#000000;stroke-width:0.326355;stroke-opacity:0.0200803"
       id="path1552-6"
       cx="84.5"
       cy="84.5"
       r="51.336823" />
    <circle
       style="fill:#ffffff;fill-opacity:1;stroke:#000000;stroke-width:0.269321;stroke-opacity:0.0200803"
       id="path1552"
       cx="84.5"
       cy="84.5"
       r="42.365341" />
    <g
       id="g87"
       transform="translate(-0.29943888,-9.435679)">
      <rect
         style="fill:#080808;fill-opacity:1;stroke:#000000;stroke-width:0.264583;stroke-opacity:0.0200803"
         id="rect1470"
         width="10.016369"
         height="41.766369"
         x="56.262238"
         y="72.818901" />
      <rect
         style="fill:#080808;fill-opacity:1;stroke:#000000;stroke-width:0.242418;stroke-opacity:0.0200803"
         id="rect1470-6"
         width="10.037832"
         height="34.9869"
         x="67.247215"
         y="67.142105"
         transform="matrix(1,0,0.01075836,0.99994213,0,0)" />
      <rect
         style="fill:#080808;fill-opacity:1;stroke:#000000;stroke-width:0.294878;stroke-opacity:0.0200803"
         id="rect1470-9"
         width="9.9860735"
         height="52.035927"
         x="80.089874"
         y="60.077347" />
      <rect
         style="fill:#080808;fill-opacity:1;stroke:#000000;stroke-width:0.267802;stroke-opacity:0.0200803"
         id="rect1470-3"
         width="10.01315"
         height="42.802586"
         x="92.171585"
         y="64.316032" />
      <rect
         style="fill:#080808;fill-opacity:1;stroke:#000000;stroke-width:0.236875;stroke-opacity:0.0200803"
         id="rect1470-2"
         width="10.044077"
         height="33.384106"
         x="103.30642"
         y="69.025291" />
      <rect
         style="fill:#080808;fill-opacity:1;stroke:#000000;stroke-width:0.193337;stroke-opacity:0.0200803"
         id="rect1470-23"
         width="10.087615"
         height="22.143713"
         x="-114.62089"
         y="56.226608"
         transform="rotate(-90)" />
      <text
         xml:space="preserve"
         style="font-style:normal;font-variant:normal;font-weight:bold;font-stretch:normal;font-size:11.6436px;line-height:1.25;font-family:Arial;-inkscape-font-specification:'Arial Bold';fill:#000000;fill-opacity:1;stroke:none;stroke-width:0.291091"
         x="78.501617"
         y="118.0849"
         id="text1814"
         transform="scale(0.92411586,1.0821154)"><tspan
           id="tspan1812"
           x="78.501617"
           y="118.0849"
           style="font-style:normal;font-variant:normal;font-weight:bold;font-stretch:normal;font-family:Arial;-inkscape-font-specification:'Arial Bold';stroke-width:0.291091">1975</tspan></text>
    </g>
  </g>
</svg>
